<svg width="157" height="46" viewBox="0 0 157 46" fill="none" xmlns="http://www.w3.org/2000/svg">
<path d="M18.2077 25.0033V32.0555H28.4014C26.7345 36.0305 22.7916 38.8514 18.2077 38.8514C12.1171 38.8514 7.14843 33.9148 7.14843 27.7921C7.14843 21.7015 12.085 16.7329 18.2077 16.7329V9.58447C8.14216 9.58447 0 17.7266 0 27.7921C0 37.8576 8.14216 45.9998 18.2077 45.9998C26.7986 45.9998 33.9791 40.0695 35.9024 32.0555C36.223 30.6771 36.4153 29.2667 36.4153 27.7921C36.4153 26.8625 36.3512 25.9329 36.1909 25.0033H18.2077Z" fill="#282828"/>
<path d="M58.3095 9.58447C48.244 9.58447 40.1018 17.7266 40.1018 27.7921C40.1018 37.8576 48.244 45.9998 58.3095 45.9998C68.375 45.9998 76.5171 37.8576 76.5171 27.7921C76.5171 17.7266 68.3429 9.58447 58.3095 9.58447ZM58.3095 38.8514C52.2189 38.8514 47.2502 33.9148 47.2502 27.7921C47.2502 21.7015 52.1868 16.7329 58.3095 16.7329C64.4321 16.7329 69.3687 21.6695 69.3687 27.7921C69.3366 33.8827 64.4001 38.8514 58.3095 38.8514Z" fill="#282828"/>
<path d="M117.292 9.58447V27.7921C117.292 37.8576 109.15 45.9998 99.0844 45.9998C89.0189 45.9998 80.8767 37.8576 80.8767 27.7921C80.8767 26.8625 80.9408 25.9329 81.1011 25.0033H88.3778C88.1534 25.9008 88.0251 26.8305 88.0251 27.7921C88.0251 33.8827 92.9617 38.8514 99.0844 38.8514C102.418 38.8514 105.399 37.3768 107.451 35.0367C107.579 34.9085 107.675 34.7803 107.804 34.62C107.868 34.5559 107.9 34.4918 107.964 34.3956C108.124 34.1712 108.284 33.9789 108.413 33.7545C108.701 33.3057 108.958 32.8249 109.182 32.3441C109.374 31.9273 109.535 31.5106 109.663 31.0939C109.759 30.8374 109.823 30.581 109.887 30.2925C110.079 29.4911 110.176 28.6576 110.176 27.7921V16.7329H99.2767C99.2446 16.7329 99.1805 16.7329 99.1485 16.7329V9.58447H117.292Z" fill="#282828"/>
<path d="M107.932 34.3958C108.092 34.1714 108.252 33.979 108.38 33.7546C108.252 33.979 108.092 34.2034 107.932 34.3958Z" fill="#282828"/>
<path d="M108.38 33.7547C108.669 33.3059 108.925 32.8251 109.15 32.3442C108.925 32.8251 108.669 33.3059 108.38 33.7547Z" fill="#282828"/>
<path d="M156.657 27.7921C156.657 26.8625 156.592 25.9329 156.432 25.0033C155.086 16.2841 147.553 9.58447 138.449 9.58447C128.383 9.58447 120.241 17.7266 120.241 27.7921C120.241 37.8576 128.383 45.9998 138.449 45.9998V38.8514C133.865 38.8514 129.922 36.0625 128.255 32.0555H156.144C156.496 30.6771 156.657 29.2667 156.657 27.7921ZM127.774 25.0033C128.992 20.259 133.32 16.7329 138.481 16.7329C143.61 16.7329 147.937 20.259 149.188 25.0033H127.774Z" fill="#282828"/>
<path d="M132.807 6.92404C134.719 6.92404 136.269 5.37404 136.269 3.46202C136.269 1.55 134.719 0 132.807 0C130.895 0 129.345 1.55 129.345 3.46202C129.345 5.37404 130.895 6.92404 132.807 6.92404Z" fill="#282828"/>
<path d="M143.994 6.92404C145.907 6.92404 147.457 5.37404 147.457 3.46202C147.457 1.55 145.907 0 143.994 0C142.082 0 140.532 1.55 140.532 3.46202C140.532 5.37404 142.082 6.92404 143.994 6.92404Z" fill="#282828"/>
</svg>
