<svg width="64" height="61" viewBox="0 0 64 61" fill="none" xmlns="http://www.w3.org/2000/svg">
<path d="M48.7674 60.7565H8.28236C3.70679 60.7565 0 57.0497 0 52.4742V15.7538C0 11.1782 3.70679 7.47144 8.28236 7.47144H48.7674C53.343 7.47144 57.0498 11.1782 57.0498 15.7538V52.4742C57.0498 57.0497 53.343 60.7565 48.7674 60.7565Z" fill="#FFDA6E"/>
<path d="M55.7177 53.2851H15.2326C10.657 53.2851 6.95023 49.5783 6.95023 45.0027V8.28235C6.95023 3.70679 10.657 0 15.2326 0H55.7177C60.2932 0 64 3.70679 64 8.28235V45.0027C64 49.5783 60.2932 53.2851 55.7177 53.2851Z" fill="#F9A86C"/>
<path d="M15.7538 8.34033L22.6462 12.3367L15.7538 16.3331V8.34033Z" fill="white"/>
<path d="M54.4434 14.248H28.8434C27.8009 14.248 26.99 13.4372 26.99 12.3947C26.99 11.3521 27.8009 10.5413 28.8434 10.5413H54.4434C55.486 10.5413 56.2968 11.3521 56.2968 12.3947C56.2968 13.3793 55.486 14.248 54.4434 14.248Z" fill="#FFDA6E"/>
<path d="M54.4434 26.8743H17.6072C16.5647 26.8743 15.7538 26.0634 15.7538 25.0209C15.7538 23.9783 16.5647 23.1675 17.6072 23.1675H54.4434C55.486 23.1675 56.2968 23.9783 56.2968 25.0209C56.2968 26.0634 55.486 26.8743 54.4434 26.8743Z" fill="#D28F62"/>
<path d="M54.4434 34.7512H17.6072C16.5647 34.7512 15.7538 33.9404 15.7538 32.8978C15.7538 31.8553 16.5647 31.0444 17.6072 31.0444H54.4434C55.486 31.0444 56.2968 31.8553 56.2968 32.8978C56.2968 33.8824 55.486 34.7512 54.4434 34.7512Z" fill="#D28F62"/>
<path d="M54.4434 43.0913H17.6072C16.5647 43.0913 15.7538 42.2804 15.7538 41.2379C15.7538 40.1954 16.5647 39.3845 17.6072 39.3845H54.4434C55.486 39.3845 56.2968 40.1954 56.2968 41.2379C56.2968 42.2225 55.486 43.0913 54.4434 43.0913Z" fill="#D28F62"/>
</svg>
