<svg width="64" height="60" viewBox="0 0 64 60" fill="none" xmlns="http://www.w3.org/2000/svg">
<path d="M11.8955 18.2451H8.30203V14.9614C8.30203 14.4038 8.73572 13.9082 9.35528 13.9082H10.9042C11.4618 13.9082 11.9574 14.3419 11.9574 14.9614V18.2451H11.8955Z" fill="#D28F62"/>
<path d="M9.41724 17.4397L8.67378 15.1474C8.48791 14.5278 8.79769 13.8463 9.41724 13.6604L50.3078 0.092196C51.2372 -0.217581 52.2904 0.278063 52.6002 1.20739C52.91 2.13673 52.4143 3.18997 51.485 3.49975L9.41724 17.4397Z" fill="#D28F62"/>
<path d="M55.0784 59.2597H8.85963C3.96515 59.2597 0 55.2945 0 50.4V26.6091C0 21.7147 3.96515 17.7495 8.85963 17.7495H55.1404C60.0349 17.7495 64 21.7147 64 26.6091V50.4C63.938 55.2945 59.9729 59.2597 55.0784 59.2597Z" fill="#F9A86C"/>
<path d="M50.4318 40.3632H38.6602C36.244 40.3632 34.3233 38.4426 34.3233 36.0264V31.7514C34.3233 29.3352 36.244 27.4146 38.6602 27.4146H50.4318C52.848 27.4146 54.7686 29.3352 54.7686 31.7514V36.0264C54.7686 38.4426 52.848 40.3632 50.4318 40.3632Z" fill="#FFDA6E"/>
<path d="M19.454 49.8424C13.3204 49.8424 8.30203 44.8859 8.30203 38.6904V37.9469C8.30203 31.8133 13.2585 26.7949 19.454 26.7949C25.5876 26.7949 30.606 31.7514 30.606 37.9469V38.6904C30.544 44.8859 25.5876 49.8424 19.454 49.8424Z" fill="#D28F62"/>
<path d="M37.1113 49.3467C38.6511 49.3467 39.8993 48.0985 39.8993 46.5587C39.8993 45.019 38.6511 43.7708 37.1113 43.7708C35.5716 43.7708 34.3233 45.019 34.3233 46.5587C34.3233 48.0985 35.5716 49.3467 37.1113 49.3467Z" fill="white"/>
<path d="M44.546 49.3467C46.0858 49.3467 47.334 48.0985 47.334 46.5587C47.334 45.019 46.0858 43.7708 44.546 43.7708C43.0062 43.7708 41.758 45.019 41.758 46.5587C41.758 48.0985 43.0062 49.3467 44.546 49.3467Z" fill="#FFDA6E"/>
<path d="M51.9806 49.3467C53.5204 49.3467 54.7686 48.0985 54.7686 46.5587C54.7686 45.019 53.5204 43.7708 51.9806 43.7708C50.4409 43.7708 49.1926 45.019 49.1926 46.5587C49.1926 48.0985 50.4409 49.3467 51.9806 49.3467Z" fill="white"/>
</svg>
