<svg width="64" height="69" viewBox="0 0 64 69" fill="none" xmlns="http://www.w3.org/2000/svg">
<path d="M38.1646 34.6654L14.5595 1.02358C14.3117 0.651844 14.4976 0.218156 14.9932 0.0942446C15.4889 -0.0296663 16.1704 0.218156 16.4182 0.589889L40.0852 34.2317C40.333 34.6034 40.1472 35.0371 39.6515 35.161C39.0939 35.285 38.4744 35.0371 38.1646 34.6654Z" fill="#D28F62"/>
<path d="M49.5024 0.961565L26.0213 34.7273C25.7735 35.099 25.092 35.3469 24.5963 35.2229C24.1007 35.099 23.9148 34.6653 24.1626 34.2936L47.6438 0.527877C47.8916 0.156144 48.5731 -0.091678 49.0687 0.0322329C49.5644 0.0941884 49.7502 0.527877 49.5024 0.961565Z" fill="#D28F62"/>
<path d="M55.1404 68.8027H8.85963C3.96514 68.8027 0 64.8376 0 59.9431V28.4077C0 23.5132 3.96514 19.5481 8.85963 19.5481H55.1404C60.0349 19.5481 64 23.5132 64 28.4077V59.9431C64 64.8376 60.0349 68.8027 55.1404 68.8027Z" fill="#F9A86C"/>
<path d="M36.7396 61.492H12.453C9.54114 61.492 7.18683 59.1377 7.18683 56.2258V32.1251C7.18683 29.2132 9.54114 26.8589 12.453 26.8589H36.7396C39.6515 26.8589 42.0058 29.2132 42.0058 32.1251V56.1638C42.0058 59.1377 39.6515 61.492 36.7396 61.492Z" fill="#FFDA6E"/>
<path d="M56.3175 31.3818H47.396C46.7764 31.3818 46.2808 30.8861 46.2808 30.2666C46.2808 29.647 46.7764 29.1514 47.396 29.1514H56.3175C56.9371 29.1514 57.4327 29.647 57.4327 30.2666C57.4327 30.8861 56.9371 31.3818 56.3175 31.3818Z" fill="#D28F62"/>
<path d="M56.3175 36.6479H47.396C46.7764 36.6479 46.2808 36.1522 46.2808 35.5327C46.2808 34.9131 46.7764 34.4175 47.396 34.4175H56.3175C56.9371 34.4175 57.4327 34.9131 57.4327 35.5327C57.4327 36.1522 56.9371 36.6479 56.3175 36.6479Z" fill="#D28F62"/>
<path d="M51.9806 48.4814C54.4443 48.4814 56.4415 46.4842 56.4415 44.0206C56.4415 41.557 54.4443 39.5598 51.9806 39.5598C49.517 39.5598 47.5199 41.557 47.5199 44.0206C47.5199 46.4842 49.517 48.4814 51.9806 48.4814Z" fill="white"/>
<path d="M51.9806 60.4387C54.4443 60.4387 56.4415 58.4415 56.4415 55.9779C56.4415 53.5143 54.4443 51.5171 51.9806 51.5171C49.517 51.5171 47.5199 53.5143 47.5199 55.9779C47.5199 58.4415 49.517 60.4387 51.9806 60.4387Z" fill="#D28F62"/>
</svg>
